<svg xmlns="http://www.w3.org/2000/svg" viewBox="0 0 160 31.09"><defs><style>.cls-1{fill:#fff;}.cls-2{fill:#d70032;}.cls-3{fill:#ee801d;}.cls-4{fill:#ff6b00;}.cls-5{fill:#074c96;}.cls-6{fill:#0257a0;}</style></defs><title>Logo BE blco (H) 160px</title><g id="Capa_2" data-name="Capa 2"><g id="Capa_1-2" data-name="Capa 1"><path class="cls-1" d="M59.4,18.5l-1.12,6.11a14.12,14.12,0,0,1-5.38,1.11c-3.3,0-4.67-1.39-4.26-3.63S51.3,18.52,54,18.55A7.56,7.56,0,0,1,56.7,19l.11-.64c.25-1.34-.5-2.14-2.29-2.14a6.39,6.39,0,0,0-3.3,1,1.81,1.81,0,0,1-.91-1.72,8.21,8.21,0,0,1,4.82-1.59c2.95,0,4.88,1.33,4.27,4.63m-5.66,5.14a8.53,8.53,0,0,0,2.37-.35l.44-2.4a6.11,6.11,0,0,0-2.46-.44c-1.31,0-2.29.44-2.48,1.5s.49,1.69,2.13,1.69"/><path class="cls-1" d="M135.15,18.5,134,24.61a14.11,14.11,0,0,1-5.37,1.11c-3.31,0-4.68-1.39-4.27-3.63s2.67-3.57,5.37-3.54a7.52,7.52,0,0,1,2.69.42l.11-.64c.25-1.34-.5-2.14-2.29-2.14a6.39,6.39,0,0,0-3.3,1,1.81,1.81,0,0,1-.91-1.72,8.21,8.21,0,0,1,4.82-1.59c3,0,4.88,1.33,4.27,4.63m-5.66,5.14a8.47,8.47,0,0,0,2.37-.35l.44-2.4a6.11,6.11,0,0,0-2.46-.44c-1.31,0-2.28.44-2.48,1.5s.49,1.69,2.13,1.69"/><path id="_Trazado_" data-name="&lt;Trazado&gt;" class="cls-1" d="M72.33,19.82a7.14,7.14,0,0,1,7-6,5,5,0,0,1,3.54,1.27A4.19,4.19,0,0,1,81.1,17,2.88,2.88,0,0,0,79,16.16a4,4,0,0,0-3.9,3.64c-.36,1.91.35,3.61,2.59,3.61a4.17,4.17,0,0,0,2.65-.95,2.25,2.25,0,0,1,1.08,1.82,6.84,6.84,0,0,1-4.18,1.44c-3.57,0-5.55-2.17-4.86-5.9"/><path class="cls-1" d="M82.13,19.8a7.21,7.21,0,0,1,7.06-6c3.45,0,5.43,2.45,4.78,6a7.2,7.2,0,0,1-7.06,5.92c-3.45,0-5.43-2.43-4.78-5.92m9.15,0c.4-2.15-.56-3.64-2.56-3.64a4,4,0,0,0-3.9,3.64c-.4,2.12.56,3.58,2.57,3.58a4,4,0,0,0,3.89-3.58"/><path id="_Trazado_2" data-name="&lt;Trazado&gt;" class="cls-1" d="M105.24,24.33a3.82,3.82,0,0,1,1.57-1.84,4.59,4.59,0,0,0,3.24,1.11c1.58,0,2.26-.59,2.4-1.35s-.42-1.18-2.37-1.49-3.68-1-3.25-3.39c.39-2.08,2.51-3.5,5.34-3.5a6.45,6.45,0,0,1,4,1.09,3.64,3.64,0,0,1-1.36,1.91,5.84,5.84,0,0,0-3.13-.85c-1.41,0-2.11.45-2.24,1.16s.29,1.08,2.15,1.39c2.36.38,4,1.2,3.57,3.42s-2.48,3.75-5.55,3.75a6,6,0,0,1-4.37-1.41"/><path class="cls-1" d="M148,19.8a7.21,7.21,0,0,1,7.07-6c3.45,0,5.42,2.45,4.78,6a7.21,7.21,0,0,1-7.06,5.92c-3.45,0-5.43-2.43-4.79-5.92m9.16,0c.39-2.15-.56-3.64-2.56-3.64a4.06,4.06,0,0,0-3.91,3.64c-.39,2.12.57,3.58,2.58,3.58a4,4,0,0,0,3.89-3.58"/><path class="cls-1" d="M145.82,10.93l-.61,3.32a5.78,5.78,0,0,0-2.2-.35,7.26,7.26,0,0,0-7.19,6c-.7,3.77,1.42,5.85,5.1,5.85A12.58,12.58,0,0,0,146,24.61l2.66-14.46ZM143.59,23a6.21,6.21,0,0,1-2.28.35c-2,0-3.17-1.36-2.77-3.56a4.2,4.2,0,0,1,4.13-3.56,3.52,3.52,0,0,1,2.08.49Z"/><path id="_Trazado_3" data-name="&lt;Trazado&gt;" class="cls-1" d="M125,14.35h-4.18l.54-2.91-2.78.77-1.79,9.71c-.5,2.69,1.07,3.78,3.48,3.78a6,6,0,0,0,3.57-1.21,2.26,2.26,0,0,0-.79-1.86,3.47,3.47,0,0,1-2,.75c-1.11,0-1.81-.42-1.51-2.07l.88-4.79h4.18a4.78,4.78,0,0,0,.32-1.11,3.82,3.82,0,0,0,.08-1.06"/><path class="cls-1" d="M135.8,26.74l-.69,3.33a2.82,2.82,0,0,1-1.14.25c-.83,0-1.3-.47-1.12-1.32a1.67,1.67,0,0,1,1.65-1.34,1.11,1.11,0,0,1,.49.08l.21-1a2.26,2.26,0,0,1,.6,0m-1.22,3,.3-1.42a.8.8,0,0,0-.47-.11,1,1,0,0,0-.95.8c-.1.5.15.81.61.81a1.81,1.81,0,0,0,.51-.08"/><path class="cls-1" d="M138.23,29.15h-1.78a.55.55,0,0,0,.59.67,1.51,1.51,0,0,0,.8-.26A.49.49,0,0,1,138,30a2,2,0,0,1-1.12.35,1,1,0,0,1-1-1.32,1.63,1.63,0,0,1,1.54-1.35.87.87,0,0,1,.92,1.14,2.8,2.8,0,0,1-.1.36m-.48-.4c.06-.3,0-.6-.44-.61a.83.83,0,0,0-.77.61Z"/><path id="_Trazado_4" data-name="&lt;Trazado&gt;" class="cls-1" d="M138.44,30a.91.91,0,0,1,.37-.42,1,1,0,0,0,.72.25c.36,0,.51-.13.55-.3s-.09-.27-.53-.34-.82-.23-.71-.76a1.14,1.14,0,0,1,1.22-.79,1.49,1.49,0,0,1,.9.24.92.92,0,0,1-.32.44,1.32,1.32,0,0,0-.7-.2c-.32,0-.48.11-.51.27s.06.24.48.31.89.27.78.77a1.16,1.16,0,0,1-1.27.85,1.36,1.36,0,0,1-1-.32"/><path class="cls-1" d="M144.13,26.74l-.69,3.33a2.87,2.87,0,0,1-1.15.25c-.82,0-1.29-.47-1.11-1.32a1.67,1.67,0,0,1,1.65-1.34,1.14,1.14,0,0,1,.49.08l.21-1a1.51,1.51,0,0,1,.3,0,1.56,1.56,0,0,1,.3,0m-1.22,3,.29-1.42a.75.75,0,0,0-.46-.11,1,1,0,0,0-1,.8c-.1.5.15.81.6.81a1.82,1.82,0,0,0,.52-.08"/><path class="cls-1" d="M146.56,29.15h-1.78a.54.54,0,0,0,.58.67,1.48,1.48,0,0,0,.8-.26.47.47,0,0,1,.18.41,2,2,0,0,1-1.12.35,1,1,0,0,1-1-1.32,1.64,1.64,0,0,1,1.55-1.35.87.87,0,0,1,.92,1.14c0,.13-.06.22-.1.36m-.49-.4c.07-.3,0-.6-.43-.61a.81.81,0,0,0-.77.61Z"/><path id="_Trazado_5" data-name="&lt;Trazado&gt;" class="cls-1" d="M150,26.78l-.72,3.46a1.53,1.53,0,0,1-.3,0,1.43,1.43,0,0,1-.29,0l.57-2.72-.67.28a.66.66,0,0,1-.12-.52l1.1-.5.22,0,.21,0"/><path class="cls-1" d="M152.57,29.28a1.36,1.36,0,0,1-1.45,1c-.62,0-1.16-.23-1-.92a1.63,1.63,0,0,1,.76-1,.69.69,0,0,1-.29-.77,1.26,1.26,0,0,1,1.31-1c.68,0,1,.36.93.91a1.39,1.39,0,0,1-.64.82.74.74,0,0,1,.39.84m-.59.07c.07-.31-.22-.45-.57-.61l-.16-.08a1.19,1.19,0,0,0-.54.69c-.07.37.19.49.53.49s.67-.12.74-.49m-.82-1.74c-.06.29.18.42.48.56l.13.06a.93.93,0,0,0,.48-.57c.06-.31-.15-.46-.46-.46a.59.59,0,0,0-.63.41"/><path id="_Trazado_6" data-name="&lt;Trazado&gt;" class="cls-1" d="M152.93,30a1,1,0,0,1,.4-.47.94.94,0,0,0,.66.28.77.77,0,0,0,.83-.65c.08-.38-.1-.61-.57-.61-.31,0-.56.13-.79.13a.26.26,0,0,1-.15,0l.38-1.83h2a1.43,1.43,0,0,1,0,.29,2.76,2.76,0,0,1-.08.27h-1.48l-.14.71a1.25,1.25,0,0,1,.45-.08c.83,0,1.15.42,1,1.12a1.48,1.48,0,0,1-1.57,1.21,1.25,1.25,0,0,1-.93-.34"/><path id="_Trazado_7" data-name="&lt;Trazado&gt;" class="cls-1" d="M155.73,30a1,1,0,0,1,.4-.47.92.92,0,0,0,.66.28.77.77,0,0,0,.83-.65c.08-.38-.1-.61-.57-.61-.31,0-.56.13-.79.13a.24.24,0,0,1-.15,0l.37-1.83h2a1.32,1.32,0,0,1-.12.56h-1.47l-.15.71a1.36,1.36,0,0,1,.46-.08c.83,0,1.15.42,1,1.12a1.48,1.48,0,0,1-1.57,1.21,1.25,1.25,0,0,1-.93-.34"/><path id="_Trazado_8" data-name="&lt;Trazado&gt;" class="cls-1" d="M107,10.22H96.29l.54,1.71a1.26,1.26,0,0,1,0,.27c0,.05,0,.09,0,.14l-2.4,13h9.91a5.31,5.31,0,0,0,.39-1.25,3.77,3.77,0,0,0,0-1.16H97.57l.76-4.15h6.26A6.84,6.84,0,0,0,105,17.6a5.39,5.39,0,0,0,.08-1.2H98.78l.69-3.75h7a5.62,5.62,0,0,0,.36-1.21,5.13,5.13,0,0,0,.09-1.22"/><path id="_Trazado_9" data-name="&lt;Trazado&gt;" class="cls-1" d="M67.15,13.85a10.14,10.14,0,0,0-3,.47.54.54,0,0,1-.22,0,.61.61,0,0,1-.24,0h0l-1.88-.56-.34,1.86h0l-1.8,9.75a6.4,6.4,0,0,0,1.3.11,7,7,0,0,0,1.37-.11l1.55-8.45a5.85,5.85,0,0,1,2.6-.62c1.72,0,2.57.78,2.19,2.84l-1.15,6.23a6.54,6.54,0,0,0,1.32.11,7.29,7.29,0,0,0,1.37-.11l1.27-6.87c.47-2.57-.73-4.65-4.34-4.65"/><path class="cls-1" d="M48.5,14.23c.49-2.67-1-4.18-5-4.18h-.09l-5.6,0,.62,1.82a.92.92,0,0,1,0,.29.58.58,0,0,1,0,.19l-2.4,13a23.24,23.24,0,0,0,4.65.38c4.28,0,6.66-1.77,7.19-4.65A2.85,2.85,0,0,0,46,17.48a4.14,4.14,0,0,0,2.51-3.25M45.24,21c-.31,1.7-1.49,2.46-4,2.46a18.17,18.17,0,0,1-2.12-.12l.85-4.6h2.54c2,0,3,.75,2.72,2.26m.65-6.72c-.26,1.41-1.18,2.22-3.17,2.22H40.39l.77-4.18c.74-.07,1.45-.1,2.14-.1,2,0,2.83.76,2.59,2.06"/><rect class="cls-1" width="31.09" height="31.09"/><path id="_Trazado_10" data-name="&lt;Trazado&gt;" class="cls-2" d="M.74,15.63,11.29,11V7.65h0A14,14,0,0,0,19.79,2.9h0l10.56,8.62V.74H.74Z"/><path id="_Trazado_11" data-name="&lt;Trazado&gt;" class="cls-1" d="M11.31,25.41h8.48V2.91h0A14,14,0,0,1,11.3,7.65h0V11L.74,15.63v3.31L11.3,14.31V11l3.39-1.48v3.28L11.31,14.3v3.24l3.39-1.48v3.23l-3.39,1.49V17.54L.74,22.17v3.24l10.57-4.63Z"/><polygon id="_Trazado_12" data-name="&lt;Trazado&gt;" class="cls-3" points="11.31 17.54 11.31 17.54 11.31 14.3 11.3 14.31 11.3 14.31 0.74 18.94 0.74 22.18 11.31 17.54 11.31 17.54"/><polygon id="_Trazado_13" data-name="&lt;Trazado&gt;" class="cls-3" points="11.31 20.78 0.74 25.41 0.74 25.41 11.31 25.41 11.31 20.78"/><polygon id="_Trazado_14" data-name="&lt;Trazado&gt;" class="cls-3" points="11.31 14.3 14.69 12.83 14.69 9.56 11.3 11.05 11.3 14.31 11.31 14.3 11.31 14.3"/><polygon id="_Trazado_15" data-name="&lt;Trazado&gt;" class="cls-4" points="11.31 14.3 11.31 14.3 11.3 14.31 11.3 14.31 11.31 14.3"/><polygon id="_Trazado_16" data-name="&lt;Trazado&gt;" class="cls-3" points="11.31 17.54 11.31 20.78 14.7 19.29 14.7 16.06 11.31 17.54 11.31 17.54 11.31 17.54"/><polygon id="_Trazado_17" data-name="&lt;Trazado&gt;" class="cls-4" points="11.31 17.54 11.31 17.54 11.31 17.54 11.31 17.54 11.31 17.54"/><polygon id="_Trazado_18" data-name="&lt;Trazado&gt;" class="cls-3" points="19.8 25.41 30.35 25.41 30.35 11.53 19.79 2.91 19.8 25.41"/><polygon id="_Trazado_19" data-name="&lt;Trazado&gt;" class="cls-4" points="19.79 25.41 19.8 25.41 19.79 2.91 19.79 25.41"/><rect id="_Trazado_20" data-name="&lt;Trazado&gt;" class="cls-5" x="0.74" y="30.34" width="29.61"/><polygon id="_Trazado_21" data-name="&lt;Trazado&gt;" class="cls-6" points="19.8 25.41 19.79 25.41 11.31 25.41 0.74 25.41 0.74 30.34 30.35 30.34 30.35 25.41 19.8 25.41"/><line id="_Trazado_22" data-name="&lt;Trazado&gt;" class="cls-5" x1="19.8" y1="25.41" x2="19.79" y2="25.41"/></g></g></svg>